<?xml version="1.0" encoding="UTF-8" standalone="no"?>
<svg
   height="16px"
   id="Layer_1"
   style="enable-background:new 0 0 16 16;"
   version="1.1"
   viewBox="0 0 16 16"
   width="16px"
   xml:space="preserve"
   sodipodi:docname="126572_home_house_icon.svg"
   inkscape:export-filename="/home/jhayes/126572_home_house_icon.png"
   inkscape:export-xdpi="96"
   inkscape:export-ydpi="96"
   inkscape:version="1.1 (c4e8f9ed74, 2021-05-24)"
   xmlns:inkscape="http://www.inkscape.org/namespaces/inkscape"
   xmlns:sodipodi="http://sodipodi.sourceforge.net/DTD/sodipodi-0.dtd"
   xmlns="http://www.w3.org/2000/svg"
   xmlns:svg="http://www.w3.org/2000/svg"><defs
     id="defs7" /><sodipodi:namedview
     id="namedview5"
     pagecolor="#ffffff"
     bordercolor="#666666"
     borderopacity="1.0"
     inkscape:pageshadow="2"
     inkscape:pageopacity="0.0"
     inkscape:pagecheckerboard="0"
     showgrid="false"
     inkscape:zoom="49.0625"
     inkscape:cx="3.5464968"
     inkscape:cy="7.9694268"
     inkscape:window-width="3440"
     inkscape:window-height="1391"
     inkscape:window-x="0"
     inkscape:window-y="24"
     inkscape:window-maximized="1"
     inkscape:current-layer="Layer_1" /><path
     style="display:inline;fill:#ffffff;fill-opacity:1;stroke-width:0.0203822"
     d="m 2.8659775,15.977961 c -0.3936273,-0.051 -0.7525483,-0.389889 -0.8358103,-0.789155 -0.015862,-0.07606 -0.022524,-1.009027 -0.022524,-3.15414 V 8.988535 H 1.4412249 C 0.82810729,8.988535 0.73920188,8.977312 0.53578892,8.8742347 0.39201211,8.8013774 0.21162731,8.6243834 0.13540635,8.4813782 0.01718088,8.2595644 -0.01861304,7.986667 0.04066723,7.7590746 0.07936115,7.6105186 0.12462475,7.5223319 0.246816,7.3574361 0.36550378,7.1972684 1.9544118,5.5981695 5.0547771,2.5186377 L 7.3783439,0.21068447 7.5602468,0.12062886 7.7421497,0.03057325 h 0.2563137 c 0.246189,0 0.2617641,0.0025817 0.3942926,0.06535805 0.075888,0.03594693 0.1905382,0.10669563 0.254777,0.15721933 0.064239,0.0505237 0.6212568,0.59095827 1.2378173,1.20096567 l 1.1210187,1.1091045 0.01139,-0.4000817 c 0.01,-0.3510397 0.01694,-0.413483 0.05667,-0.5094082 0.08521,-0.2057341 0.220395,-0.3661097 0.415434,-0.4928535 0.209421,-0.1360904 0.280363,-0.1452781 1.065556,-0.1380008 l 0.692994,0.00642 0.159642,0.076227 c 0.292895,0.1398524 0.506525,0.4124209 0.562217,0.7173255 0.01479,0.080962 0.02209,0.7172189 0.02209,1.9247442 v 1.8038031 l 0.83131,0.8370395 c 0.970032,0.9767169 1.061962,1.0876674 1.135666,1.3706362 0.134824,0.5176265 -0.189416,1.0615314 -0.71432,1.1982515 -0.09368,0.024401 -0.243383,0.031209 -0.686238,0.031209 h -0.566418 v 3.0331994 c 0,2.090488 -0.0069,3.070788 -0.02209,3.15414 -0.07531,0.412343 -0.432865,0.748345 -0.854561,0.803061 -0.08611,0.01117 -0.794528,0.02008 -1.62526,0.02044 L 10.017834,16 10.017431,13.498089 C 10.01718,11.939735 10.009334,10.942371 9.9966286,10.853503 9.9447492,10.490634 9.6889196,10.179327 9.3299104,10.042205 9.2140078,9.9979369 9.1996048,9.9974522 8,9.9974522 c -1.1996048,0 -1.2140078,4.851e-4 -1.3299104,0.044753 -0.3590092,0.137122 -0.6148388,0.448429 -0.6667182,0.811298 -0.012705,0.08887 -0.02055,1.086232 -0.020802,2.644586 L 5.9821656,16 4.489172,15.997416 c -0.8211465,-0.0014 -1.551584,-0.01018 -1.6231945,-0.01945 z"
     id="path58637"
     sodipodi:insensitive="true" /></svg>
